<svg xmlns="http://www.w3.org/2000/svg" xmlns:xlink="http://www.w3.org/1999/xlink" id="processonSvg1000" viewBox="176.0 181.0 601.9119415283203 218.79999923706055" width="601.9119415283203" height="218.79999923706055"><defs id="ProcessOnDefs1001"><marker id="ProcessOnMarker1039" markerUnits="userSpaceOnUse" orient="auto" markerWidth="16.23606797749979" markerHeight="10.550836550532098" viewBox="-1.0 -1.3763819204711736 16.23606797749979 10.550836550532098" refX="-1.0" refY="3.8990363547948754"><path id="ProcessOnPath1040" d="M12.0 3.8990363547948754L0.0 7.798072709589751V0.0Z" stroke="#323232" stroke-width="2.0" fill="#323232" transform="matrix(1.0,0.0,0.0,1.0,0.0,0.0)"/></marker><marker id="ProcessOnMarker1043" markerUnits="userSpaceOnUse" orient="auto" markerWidth="16.23606797749979" markerHeight="10.550836550532098" viewBox="-1.0 -1.3763819204711736 16.23606797749979 10.550836550532098" refX="-1.0" refY="3.8990363547948754"><path id="ProcessOnPath1044" d="M12.0 3.8990363547948754L0.0 7.798072709589751V0.0Z" stroke="#323232" stroke-width="2.0" fill="#323232" transform="matrix(1.0,0.0,0.0,1.0,0.0,0.0)"/></marker><marker id="ProcessOnMarker1047" markerUnits="userSpaceOnUse" orient="auto" markerWidth="16.23606797749979" markerHeight="10.550836550532098" viewBox="-1.0 -1.3763819204711736 16.23606797749979 10.550836550532098" refX="-1.0" refY="3.8990363547948754"><path id="ProcessOnPath1048" d="M12.0 3.8990363547948754L0.0 7.798072709589751V0.0Z" stroke="#323232" stroke-width="2.0" fill="#323232" transform="matrix(1.0,0.0,0.0,1.0,0.0,0.0)"/></marker><marker id="ProcessOnMarker1051" markerUnits="userSpaceOnUse" orient="auto" markerWidth="16.23606797749979" markerHeight="10.550836550532098" viewBox="-1.0 -1.3763819204711736 16.23606797749979 10.550836550532098" refX="-1.0" refY="3.8990363547948754"><path id="ProcessOnPath1052" d="M12.0 3.8990363547948754L0.0 7.798072709589751V0.0Z" stroke="#323232" stroke-width="2.0" fill="#323232" transform="matrix(1.0,0.0,0.0,1.0,0.0,0.0)"/></marker></defs><g id="ProcessOnG1002"><path id="ProcessOnPath1003" d="M176.0 181.0H777.9119415283203V399.79999923706055H176.0V181.0Z" fill="none"/><g id="ProcessOnG1004"><g id="ProcessOnG1005" transform="matrix(1.0,0.0,0.0,1.0,457.0,201.0)" opacity="1.0"><path id="ProcessOnPath1006" d="M0.0 0.0L194.39999389648438 0.0L194.39999389648438 178.79999923706055L0.0 178.79999923706055Z" stroke="#323232" stroke-width="2.0" stroke-dasharray="none" opacity="1.0" fill="#ffffff"/><g id="ProcessOnG1007" transform="matrix(1.0,0.0,0.0,1.0,10.0,75.02499961853027)"><text id="ProcessOnText1008" fill="#000000" font-size="23" x="86.19999694824219" y="23.575000000000003" font-family="微软雅黑" font-weight="normal" font-style="normal" text-decoration="none" family="微软雅黑" text-anchor="middle" size="23">Feeder</text></g></g><g id="ProcessOnG1009" transform="matrix(1.0,0.0,0.0,1.0,636.9119415283203,238.09658813476562)" opacity="1.0"><path id="ProcessOnPath1010" d="M0.0 0.0L30.488052368164062 0.0L30.488052368164062 29.703411102294922L0.0 29.703411102294922Z" stroke="#323232" stroke-width="2.0" stroke-dasharray="none" opacity="1.0" fill="#ffffff"/><g id="ProcessOnG1011" transform="matrix(1.0,0.0,0.0,1.0,10.0,6.726705551147461)"><text id="ProcessOnText1012" fill="#000000" font-size="13" x="4.244026184082031" y="13.325" font-family="微软雅黑" font-weight="normal" font-style="normal" text-decoration="none" family="微软雅黑" text-anchor="middle" size="13">e</text></g></g><g id="ProcessOnG1013" transform="matrix(1.0,0.0,0.0,1.0,636.9119415283203,315.0965881347656)" opacity="1.0"><path id="ProcessOnPath1014" d="M0.0 0.0L30.488052368164062 0.0L30.488052368164062 29.703411102294922L0.0 29.703411102294922Z" stroke="#323232" stroke-width="2.0" stroke-dasharray="none" opacity="1.0" fill="#ffffff"/><g id="ProcessOnG1015" transform="matrix(1.0,0.0,0.0,1.0,10.0,6.726705551147461)"><text id="ProcessOnText1016" fill="#000000" font-size="13" x="4.244026184082031" y="13.325" font-family="微软雅黑" font-weight="normal" font-style="normal" text-decoration="none" family="微软雅黑" text-anchor="middle" size="13">p</text></g></g><g id="ProcessOnG1017" transform="matrix(1.0,0.0,0.0,1.0,196.0,201.0)" opacity="1.0"><path id="ProcessOnPath1018" d="M0.0 0.0L123.09376525878906 0.0L123.09376525878906 178.79999923706055L0.0 178.79999923706055Z" stroke="#323232" stroke-width="2.0" stroke-dasharray="none" opacity="1.0" fill="#ffffff"/><g id="ProcessOnG1019" transform="matrix(1.0,0.0,0.0,1.0,10.0,75.02499961853027)"><text id="ProcessOnText1020" fill="#000000" font-size="23" x="50.54688262939453" y="23.575000000000003" font-family="微软雅黑" font-weight="normal" font-style="normal" text-decoration="none" family="微软雅黑" text-anchor="middle" size="23">Memory</text></g></g><g id="ProcessOnG1021" transform="matrix(1.0,0.0,0.0,1.0,440.9119415283203,238.09658813476562)" opacity="1.0"><path id="ProcessOnPath1022" d="M0.0 0.0L30.488052368164062 0.0L30.488052368164062 29.703411102294922L0.0 29.703411102294922Z" stroke="#323232" stroke-width="2.0" stroke-dasharray="none" opacity="1.0" fill="#ffffff"/><g id="ProcessOnG1023" transform="matrix(1.0,0.0,0.0,1.0,10.0,6.726705551147461)"><text id="ProcessOnText1024" fill="#000000" font-size="13" x="4.244026184082031" y="13.325" font-family="微软雅黑" font-weight="normal" font-style="normal" text-decoration="none" family="微软雅黑" text-anchor="middle" size="13">r</text></g></g><g id="ProcessOnG1025" transform="matrix(1.0,0.0,0.0,1.0,440.9119415283203,315.0965881347656)" opacity="1.0"><path id="ProcessOnPath1026" d="M0.0 0.0L30.488052368164062 0.0L30.488052368164062 29.703411102294922L0.0 29.703411102294922Z" stroke="#323232" stroke-width="2.0" stroke-dasharray="none" opacity="1.0" fill="#ffffff"/><g id="ProcessOnG1027" transform="matrix(1.0,0.0,0.0,1.0,10.0,6.726705551147461)"><text id="ProcessOnText1028" fill="#000000" font-size="13" x="4.244026184082031" y="13.325" font-family="微软雅黑" font-weight="normal" font-style="normal" text-decoration="none" family="微软雅黑" text-anchor="middle" size="13">w</text></g></g><g id="ProcessOnG1029" transform="matrix(1.0,0.0,0.0,1.0,303.9119415283203,238.09658813476562)" opacity="1.0"><path id="ProcessOnPath1030" d="M0.0 0.0L30.488052368164062 0.0L30.488052368164062 29.703411102294922L0.0 29.703411102294922Z" stroke="#323232" stroke-width="2.0" stroke-dasharray="none" opacity="1.0" fill="#ffffff"/><g id="ProcessOnG1031" transform="matrix(1.0,0.0,0.0,1.0,10.0,6.726705551147461)"><text id="ProcessOnText1032" fill="#000000" font-size="13" x="4.244026184082031" y="13.325" font-family="微软雅黑" font-weight="normal" font-style="normal" text-decoration="none" family="微软雅黑" text-anchor="middle" size="13">r</text></g></g><g id="ProcessOnG1033" transform="matrix(1.0,0.0,0.0,1.0,303.9119415283203,315.0965881347656)" opacity="1.0"><path id="ProcessOnPath1034" d="M0.0 0.0L30.488052368164062 0.0L30.488052368164062 29.703411102294922L0.0 29.703411102294922Z" stroke="#323232" stroke-width="2.0" stroke-dasharray="none" opacity="1.0" fill="#ffffff"/><g id="ProcessOnG1035" transform="matrix(1.0,0.0,0.0,1.0,10.0,6.726705551147461)"><text id="ProcessOnText1036" fill="#000000" font-size="13" x="4.244026184082031" y="13.325" font-family="微软雅黑" font-weight="normal" font-style="normal" text-decoration="none" family="微软雅黑" text-anchor="middle" size="13">w</text></g></g><g id="ProcessOnG1037"><path id="ProcessOnPath1038" d="M440.9119415283203 252.9482936859131L387.65596771240234 252.9482936859131L387.65596771240234 252.9482936859131L349.63606187398415 252.9482936859131" stroke="#323232" stroke-width="2.0" stroke-dasharray="none" fill="none" marker-end="url(#ProcessOnMarker1039)"/></g><g id="ProcessOnG1041"><path id="ProcessOnPath1042" d="M334.3999938964844 329.9482936859131L387.65596771240234 329.9482936859131L387.65596771240234 329.9482936859131L425.67587355082054 329.9482936859131" stroke="#323232" stroke-width="2.0" stroke-dasharray="none" fill="none" marker-end="url(#ProcessOnMarker1043)"/></g><g id="ProcessOnG1045"><path id="ProcessOnPath1046" d="M667.3999938964844 252.9482936859131L712.6559677124023 252.9482936859131L712.6559677124023 252.9482936859131L742.6758735508205 252.9482936859131" stroke="#323232" stroke-width="2.0" stroke-dasharray="none" fill="none" marker-end="url(#ProcessOnMarker1047)"/></g><g id="ProcessOnG1049"><path id="ProcessOnPath1050" d="M667.3999938964844 329.9482936859131L712.6559677124023 329.9482936859131L712.6559677124023 329.9482936859131L742.6758735508205 329.9482936859131" stroke="#323232" stroke-width="2.0" stroke-dasharray="none" fill="none" marker-end="url(#ProcessOnMarker1051)"/></g></g></g></svg>