<svg xmlns="http://www.w3.org/2000/svg" xmlns:xlink="http://www.w3.org/1999/xlink" id="processonSvg1000" viewBox="29.790908813476562 164.18750762939453 811.2119445800781 258.0" width="811.2119445800781" height="258.0"><defs id="ProcessOnDefs1001"><marker id="ProcessOnMarker1037" markerUnits="userSpaceOnUse" orient="auto" markerWidth="16.23606797749979" markerHeight="10.550836550532098" viewBox="-1.0 -1.3763819204711736 16.23606797749979 10.550836550532098" refX="-1.0" refY="3.8990363547948754"><path id="ProcessOnPath1038" d="M12.0 3.8990363547948754L0.0 7.798072709589751V0.0Z" stroke="#323232" stroke-width="2.0" fill="#323232" transform="matrix(1.0,0.0,0.0,1.0,0.0,0.0)"/></marker><marker id="ProcessOnMarker1041" markerUnits="userSpaceOnUse" orient="auto" markerWidth="16.23606797749979" markerHeight="10.550836550532098" viewBox="-1.0 -1.3763819204711736 16.23606797749979 10.550836550532098" refX="-1.0" refY="3.8990363547948754"><path id="ProcessOnPath1042" d="M12.0 3.8990363547948754L0.0 7.798072709589751V0.0Z" stroke="#323232" stroke-width="2.0" fill="#323232" transform="matrix(1.0,0.0,0.0,1.0,0.0,0.0)"/></marker><marker id="ProcessOnMarker1045" markerUnits="userSpaceOnUse" orient="auto" markerWidth="16.23606797749979" markerHeight="10.550836550532098" viewBox="-1.0 -1.3763819204711736 16.23606797749979 10.550836550532098" refX="-1.0" refY="3.8990363547948754"><path id="ProcessOnPath1046" d="M12.0 3.8990363547948754L0.0 7.798072709589751V0.0Z" stroke="#323232" stroke-width="2.0" fill="#323232" transform="matrix(1.0,0.0,0.0,1.0,0.0,0.0)"/></marker><marker id="ProcessOnMarker1061" markerUnits="userSpaceOnUse" orient="auto" markerWidth="16.23606797749979" markerHeight="10.550836550532098" viewBox="-1.0 -1.3763819204711736 16.23606797749979 10.550836550532098" refX="-1.0" refY="3.8990363547948754"><path id="ProcessOnPath1062" d="M12.0 3.8990363547948754L0.0 7.798072709589751V0.0Z" stroke="#323232" stroke-width="2.0" fill="#323232" transform="matrix(1.0,0.0,0.0,1.0,0.0,0.0)"/></marker></defs><g id="ProcessOnG1002"><path id="ProcessOnPath1003" d="M29.790908813476562 164.18750762939453H841.0028533935547V422.18750762939453H29.790908813476562V164.18750762939453Z" fill="none"/><g id="ProcessOnG1004"><g id="ProcessOnG1005" transform="matrix(1.0,0.0,0.0,1.0,49.79090881347656,184.18750762939453)" opacity="1.0"><path id="ProcessOnPath1006" d="M0.0 4.0Q0.0 0.0 4.0 0.0L367.2119445800781 0.0Q371.2119445800781 0.0 371.2119445800781 4.0L371.2119445800781 214.0Q371.2119445800781 218.0 367.2119445800781 218.0L4.0 218.0Q0.0 218.0 0.0 214.0Z" stroke="#323232" stroke-width="2.0" stroke-dasharray="10.0 4.0" opacity="1.0" fill="#ffffff"/></g><g id="ProcessOnG1007" transform="matrix(1.0,0.0,0.0,1.0,520.0,201.0)" opacity="1.0"><path id="ProcessOnPath1008" d="M0.0 0.0L194.39999389648438 0.0L194.39999389648438 178.79999923706055L0.0 178.79999923706055Z" stroke="#323232" stroke-width="2.0" stroke-dasharray="none" opacity="1.0" fill="#ffffff"/><g id="ProcessOnG1009" transform="matrix(1.0,0.0,0.0,1.0,10.0,75.02499961853027)"><text id="ProcessOnText1010" fill="#000000" font-size="23" x="86.19999694824219" y="23.575000000000003" font-family="微软雅黑" font-weight="normal" font-style="normal" text-decoration="none" family="微软雅黑" text-anchor="middle" size="23">Feeder</text></g></g><g id="ProcessOnG1011" transform="matrix(1.0,0.0,0.0,1.0,698.9119415283203,275.5482940673828)" opacity="1.0"><path id="ProcessOnPath1012" d="M0.0 0.0L30.488052368164062 0.0L30.488052368164062 29.703411102294922L0.0 29.703411102294922Z" stroke="#323232" stroke-width="2.0" stroke-dasharray="none" opacity="1.0" fill="#ffffff"/><g id="ProcessOnG1013" transform="matrix(1.0,0.0,0.0,1.0,10.0,6.101705551147461)"><text id="ProcessOnText1014" fill="#000000" font-size="14" x="4.244026184082031" y="14.350000000000001" font-family="微软雅黑" font-weight="normal" font-style="normal" text-decoration="none" family="微软雅黑" text-anchor="middle" size="14">p</text></g></g><g id="ProcessOnG1015" transform="matrix(1.0,0.0,0.0,1.0,259.0,201.0)" opacity="1.0"><path id="ProcessOnPath1016" d="M0.0 0.0L123.09376525878906 0.0L123.09376525878906 178.79999923706055L0.0 178.79999923706055Z" stroke="#323232" stroke-width="2.0" stroke-dasharray="none" opacity="1.0" fill="#ffffff"/><g id="ProcessOnG1017" transform="matrix(1.0,0.0,0.0,1.0,10.0,75.02499961853027)"><text id="ProcessOnText1018" fill="#000000" font-size="23" x="50.54688262939453" y="23.575000000000003" font-family="微软雅黑" font-weight="normal" font-style="normal" text-decoration="none" family="微软雅黑" text-anchor="middle" size="23">Control</text></g></g><g id="ProcessOnG1019" transform="matrix(1.0,0.0,0.0,1.0,503.9119415283203,238.09658813476562)" opacity="1.0"><path id="ProcessOnPath1020" d="M0.0 0.0L30.488052368164062 0.0L30.488052368164062 29.703411102294922L0.0 29.703411102294922Z" stroke="#323232" stroke-width="2.0" stroke-dasharray="none" opacity="1.0" fill="#ffffff"/><g id="ProcessOnG1021" transform="matrix(1.0,0.0,0.0,1.0,10.0,6.726705551147461)"><text id="ProcessOnText1022" fill="#000000" font-size="13" x="4.244026184082031" y="13.325" font-family="微软雅黑" font-weight="normal" font-style="normal" text-decoration="none" family="微软雅黑" text-anchor="middle" size="13">r</text></g></g><g id="ProcessOnG1023" transform="matrix(1.0,0.0,0.0,1.0,503.9119415283203,315.0965881347656)" opacity="1.0"><path id="ProcessOnPath1024" d="M0.0 0.0L30.488052368164062 0.0L30.488052368164062 29.703411102294922L0.0 29.703411102294922Z" stroke="#323232" stroke-width="2.0" stroke-dasharray="none" opacity="1.0" fill="#ffffff"/><g id="ProcessOnG1025" transform="matrix(1.0,0.0,0.0,1.0,10.0,6.726705551147461)"><text id="ProcessOnText1026" fill="#000000" font-size="13" x="4.244026184082031" y="13.325" font-family="微软雅黑" font-weight="normal" font-style="normal" text-decoration="none" family="微软雅黑" text-anchor="middle" size="13">w</text></g></g><g id="ProcessOnG1027" transform="matrix(1.0,0.0,0.0,1.0,366.9119415283203,238.09658813476562)" opacity="1.0"><path id="ProcessOnPath1028" d="M0.0 0.0L30.488052368164062 0.0L30.488052368164062 29.703411102294922L0.0 29.703411102294922Z" stroke="#323232" stroke-width="2.0" stroke-dasharray="none" opacity="1.0" fill="#ffffff"/><g id="ProcessOnG1029" transform="matrix(1.0,0.0,0.0,1.0,10.0,6.726705551147461)"><text id="ProcessOnText1030" fill="#000000" font-size="13" x="4.244026184082031" y="13.325" font-family="微软雅黑" font-weight="normal" font-style="normal" text-decoration="none" family="微软雅黑" text-anchor="middle" size="13">r</text></g></g><g id="ProcessOnG1031" transform="matrix(1.0,0.0,0.0,1.0,366.9119415283203,315.0965881347656)" opacity="1.0"><path id="ProcessOnPath1032" d="M0.0 0.0L30.488052368164062 0.0L30.488052368164062 29.703411102294922L0.0 29.703411102294922Z" stroke="#323232" stroke-width="2.0" stroke-dasharray="none" opacity="1.0" fill="#ffffff"/><g id="ProcessOnG1033" transform="matrix(1.0,0.0,0.0,1.0,10.0,6.726705551147461)"><text id="ProcessOnText1034" fill="#000000" font-size="13" x="4.244026184082031" y="13.325" font-family="微软雅黑" font-weight="normal" font-style="normal" text-decoration="none" family="微软雅黑" text-anchor="middle" size="13">w</text></g></g><g id="ProcessOnG1035"><path id="ProcessOnPath1036" d="M503.9119415283203 252.9482936859131L450.65596771240234 252.9482936859131L450.65596771240234 252.9482936859131L412.63606187398415 252.9482936859131" stroke="#323232" stroke-width="2.0" stroke-dasharray="none" fill="none" marker-end="url(#ProcessOnMarker1037)"/></g><g id="ProcessOnG1039"><path id="ProcessOnPath1040" d="M397.3999938964844 329.9482936859131L450.65596771240234 329.9482936859131L450.65596771240234 329.9482936859131L488.67587355082054 329.9482936859131" stroke="#323232" stroke-width="2.0" stroke-dasharray="none" fill="none" marker-end="url(#ProcessOnMarker1041)"/></g><g id="ProcessOnG1043"><path id="ProcessOnPath1044" d="M729.3999938964844 290.3999996185303L775.2014236450195 290.3999996185303L775.2014236450195 290.3999996185303L805.7667854160549 290.3999996185303" stroke="#323232" stroke-width="2.0" stroke-dasharray="none" fill="none" marker-end="url(#ProcessOnMarker1045)"/></g><g id="ProcessOnG1047" transform="matrix(1.0,0.0,0.0,1.0,244.3028564453125,275.5482940673828)" opacity="1.0"><path id="ProcessOnPath1048" d="M0.0 0.0L30.488052368164062 0.0L30.488052368164062 29.703411102294922L0.0 29.703411102294922Z" stroke="#323232" stroke-width="2.0" stroke-dasharray="none" opacity="1.0" fill="#ffffff"/><g id="ProcessOnG1049" transform="matrix(1.0,0.0,0.0,1.0,10.0,6.726705551147461)"><text id="ProcessOnText1050" fill="#000000" font-size="13" x="4.244026184082031" y="13.325" font-family="微软雅黑" font-weight="normal" font-style="normal" text-decoration="none" family="微软雅黑" text-anchor="middle" size="13">m</text></g></g><g id="ProcessOnG1051" transform="matrix(1.0,0.0,0.0,1.0,67.0,241.306245803833)" opacity="1.0"><path id="ProcessOnPath1052" d="M0.0 0.0L98.00285339355469 0.0L98.00285339355469 98.18750762939453L0.0 98.18750762939453Z" stroke="#323232" stroke-width="2.0" stroke-dasharray="none" opacity="1.0" fill="#ffffff"/><g id="ProcessOnG1053" transform="matrix(1.0,0.0,0.0,1.0,10.0,34.718753814697266)"><text id="ProcessOnText1054" fill="#000000" font-size="23" x="38.001426696777344" y="23.575000000000003" font-family="微软雅黑" font-weight="normal" font-style="normal" text-decoration="none" family="微软雅黑" text-anchor="middle" size="23">Clock</text></g></g><g id="ProcessOnG1055" transform="matrix(1.0,0.0,0.0,1.0,149.3028564453125,275.5482940673828)" opacity="1.0"><path id="ProcessOnPath1056" d="M0.0 0.0L30.488052368164062 0.0L30.488052368164062 29.703411102294922L0.0 29.703411102294922Z" stroke="#323232" stroke-width="2.0" stroke-dasharray="none" opacity="1.0" fill="#ffffff"/><g id="ProcessOnG1057" transform="matrix(1.0,0.0,0.0,1.0,10.0,6.726705551147461)"><text id="ProcessOnText1058" fill="#000000" font-size="13" x="4.244026184082031" y="13.325" font-family="微软雅黑" font-weight="normal" font-style="normal" text-decoration="none" family="微软雅黑" text-anchor="middle" size="13">m</text></g></g><g id="ProcessOnG1059"><path id="ProcessOnPath1060" d="M179.79090881347656 290.3999996185303L212.04688262939453 290.3999996185303L212.04688262939453 290.3999996185303L229.0667884678127 290.3999996185303" stroke="#323232" stroke-width="2.0" stroke-dasharray="none" fill="none" marker-end="url(#ProcessOnMarker1061)"/></g><g id="ProcessOnG1063" transform="matrix(1.0,0.0,0.0,1.0,74.39688110351562,193.18750762939453)" opacity="1.0"><path id="ProcessOnPath1064" d="M0.0 0.0L160.0 0.0L160.0 40.0L0.0 40.0Z" stroke="none" stroke-width="0.0" stroke-dasharray="none" opacity="1.0" fill="none"/><g id="ProcessOnG1065" transform="matrix(1.0,0.0,0.0,1.0,0.0,5.625)"><text id="ProcessOnText1066" fill="#000000" font-size="23" x="79.0" y="23.575000000000003" font-family="微软雅黑" font-weight="normal" font-style="normal" text-decoration="none" family="微软雅黑" text-anchor="middle" size="23">Memory</text></g></g></g></g></svg>