<svg xmlns="http://www.w3.org/2000/svg" xmlns:xlink="http://www.w3.org/1999/xlink" id="processonSvg1000" viewBox="75.5 341.81249237060547 834.0 240.18750762939453" width="834.0" height="240.18750762939453"><defs id="ProcessOnDefs1001"/><g id="ProcessOnG1002"><path id="ProcessOnPath1003" d="M75.5 341.81249237060547H909.5V582.0H75.5V341.81249237060547Z" fill="none"/><g id="ProcessOnG1004"><g id="ProcessOnG1005" transform="matrix(1.0,0.0,0.0,1.0,363.6500015258789,361.81249237060547)" opacity="1.0"><path id="ProcessOnPath1006" d="M0.0 0.0L267.6999969482422 0.0L267.6999969482422 200.18750762939453L0.0 200.18750762939453Z" stroke="#323232" stroke-width="2.0" stroke-dasharray="none" opacity="1.0" fill="#ffffff"/></g><g id="ProcessOnG1007" transform="matrix(-1.8369701987210297E-16,-1.0,1.0,-1.8369701987210297E-16,534.5656242370605,551.0593605041504)" opacity="1.0"><path id="ProcessOnPath1008" d="M0.0 0.0L152.3062286376953 0.0L152.3062286376953 42.18750762939453L0.0 42.18750762939453Z" stroke="#323232" stroke-width="2.0" stroke-dasharray="none" opacity="1.0" fill="#ffffff"/><g id="ProcessOnG1009" transform="matrix(1.0,0.0,0.0,1.0,10.0,4.218753814697266)"><text id="ProcessOnText1010" fill="#000000" font-size="27" x="65.15311431884766" y="27.675" font-family="微软雅黑" font-weight="normal" font-style="normal" text-decoration="none" family="微软雅黑" text-anchor="middle" size="27">Filter</text></g></g><g id="ProcessOnG1011" transform="matrix(-1.8369701987210297E-16,-1.0,1.0,-1.8369701987210297E-16,412.6344108581543,551.0593605041504)" opacity="1.0"><path id="ProcessOnPath1012" d="M0.0 0.0L152.3062286376953 0.0L152.3062286376953 42.18750762939453L0.0 42.18750762939453Z" stroke="#323232" stroke-width="2.0" stroke-dasharray="none" opacity="1.0" fill="#ffffff"/><g id="ProcessOnG1013" transform="matrix(1.0,0.0,0.0,1.0,10.0,4.218753814697266)"><text id="ProcessOnText1014" fill="#000000" font-size="27" x="65.15311431884766" y="27.675" font-family="微软雅黑" font-weight="normal" font-style="normal" text-decoration="none" family="微软雅黑" text-anchor="middle" size="27">Feeder</text></g></g><g id="ProcessOnG1015" transform="matrix(1.0,0.0,0.0,1.0,391.0,393.81249237060547)" opacity="1.0"><path id="ProcessOnPath1016" d="M0.0 0.0L213.0 0.0L213.0 162.18750762939453L0.0 162.18750762939453Z" stroke="#ff0000" stroke-width="2.0" stroke-dasharray="10.0 4.0" opacity="1.0" fill="none"/></g><g id="ProcessOnG1017" transform="matrix(1.0,0.0,0.0,1.0,413.5,498.81249237060547)" opacity="1.0"><path id="ProcessOnPath1018" d="M0.0 0.0L160.0 0.0L160.0 40.0L0.0 40.0Z" stroke="none" stroke-width="0.0" stroke-dasharray="none" opacity="1.0" fill="none"/><g id="ProcessOnG1019" transform="matrix(1.0,0.0,0.0,1.0,0.0,10.0)"><text id="ProcessOnText1020" fill="#000000" font-size="16" x="79.0" y="16.4" font-family="微软雅黑" font-weight="normal" font-style="normal" text-decoration="none" family="微软雅黑" text-anchor="middle" size="16">control</text></g></g><g id="ProcessOnG1021" transform="matrix(1.0,0.0,0.0,1.0,413.5,420.81249237060547)" opacity="1.0"><path id="ProcessOnPath1022" d="M0.0 0.0L160.0 0.0L160.0 40.0L0.0 40.0Z" stroke="none" stroke-width="0.0" stroke-dasharray="none" opacity="1.0" fill="none"/><g id="ProcessOnG1023" transform="matrix(1.0,0.0,0.0,1.0,0.0,10.0)"><text id="ProcessOnText1024" fill="#000000" font-size="16" x="79.0" y="16.4" font-family="微软雅黑" font-weight="normal" font-style="normal" text-decoration="none" family="微软雅黑" text-anchor="middle" size="16">pixels</text></g></g><g id="ProcessOnG1025" transform="matrix(1.0,0.0,0.0,1.0,95.5,361.81249237060547)" opacity="1.0"><path id="ProcessOnPath1026" d="M0.0 0.0L150.0 0.0L150.0 200.18750762939453L0.0 200.18750762939453Z" stroke="#323232" stroke-width="2.0" stroke-dasharray="none" opacity="1.0" fill="#ffffff"/><g id="ProcessOnG1027" transform="matrix(1.0,0.0,0.0,1.0,10.0,83.21875381469727)"><text id="ProcessOnText1028" fill="#000000" font-size="27" x="64.0" y="27.675" font-family="微软雅黑" font-weight="normal" font-style="normal" text-decoration="none" family="微软雅黑" text-anchor="middle" size="27">Memory</text></g></g><g id="ProcessOnG1029" transform="matrix(1.0,0.0,0.0,1.0,343.2590866088867,361.81249237060547)" opacity="1.0"><path id="ProcessOnPath1030" d="M0.0 0.0L160.0 0.0L160.0 40.0L0.0 40.0Z" stroke="none" stroke-width="0.0" stroke-dasharray="none" opacity="1.0" fill="none"/><g id="ProcessOnG1031" transform="matrix(1.0,0.0,0.0,1.0,0.0,8.75)"><text id="ProcessOnText1032" fill="#000000" font-size="18" x="79.0" y="18.45" font-family="微软雅黑" font-weight="normal" font-style="normal" text-decoration="none" family="微软雅黑" text-anchor="middle" size="18">Digital Filter</text></g></g><g id="ProcessOnG1033" transform="matrix(1.0,0.0,0.0,1.0,739.5,361.81249237060547)" opacity="1.0"><path id="ProcessOnPath1034" d="M0.0 0.0L150.0 0.0L150.0 200.18750762939453L0.0 200.18750762939453Z" stroke="#323232" stroke-width="2.0" stroke-dasharray="none" opacity="1.0" fill="#ffffff"/><g id="ProcessOnG1035" transform="matrix(1.0,0.0,0.0,1.0,10.0,66.34375381469727)"><text id="ProcessOnText1036" fill="#000000" font-size="27" x="64.0" y="27.675" font-family="微软雅黑" font-weight="normal" font-style="normal" text-decoration="none" family="微软雅黑" text-anchor="middle" size="27">Video</text><text id="ProcessOnText1037" fill="#000000" font-size="27" x="64.0" y="61.425" font-family="微软雅黑" font-weight="normal" font-style="normal" text-decoration="none" family="微软雅黑" text-anchor="middle" size="27">Device</text></g></g><g id="ProcessOnG1038" transform="matrix(1.0,0.0,0.0,1.0,261.0,450.95312309265137)" opacity="1.0"><path id="ProcessOnPath1039" d="M0.0 7.2290612411499025L79.04687690734863 7.2290612411499025L79.04687690734863 0.0L90.0 10.953123092651367L79.04687690734863 21.906246185302734L79.04687690734863 14.677184944152833L0.0 14.677184944152833L0.0 7.2290612411499025Z" stroke="#323232" stroke-width="2.0" stroke-dasharray="none" opacity="1.0" fill="#000000"/></g><g id="ProcessOnG1040" transform="matrix(1.0,0.0,0.0,1.0,226.0,420.81249237060547)" opacity="1.0"><path id="ProcessOnPath1041" d="M0.0 0.0L160.0 0.0L160.0 40.0L0.0 40.0Z" stroke="none" stroke-width="0.0" stroke-dasharray="none" opacity="1.0" fill="none"/><g id="ProcessOnG1042" transform="matrix(1.0,0.0,0.0,1.0,0.0,10.0)"><text id="ProcessOnText1043" fill="#000000" font-size="16" x="79.0" y="16.4" font-family="微软雅黑" font-weight="normal" font-style="normal" text-decoration="none" family="微软雅黑" text-anchor="middle" size="16">pixels</text></g></g><g id="ProcessOnG1044" transform="matrix(1.0,0.0,0.0,1.0,606.0,420.81249237060547)" opacity="1.0"><path id="ProcessOnPath1045" d="M0.0 0.0L160.0 0.0L160.0 40.0L0.0 40.0Z" stroke="none" stroke-width="0.0" stroke-dasharray="none" opacity="1.0" fill="none"/><g id="ProcessOnG1046" transform="matrix(1.0,0.0,0.0,1.0,0.0,10.0)"><text id="ProcessOnText1047" fill="#000000" font-size="16" x="79.0" y="16.4" font-family="微软雅黑" font-weight="normal" font-style="normal" text-decoration="none" family="微软雅黑" text-anchor="middle" size="16">pixels</text></g></g><g id="ProcessOnG1048" transform="matrix(1.0,0.0,0.0,1.0,641.0,450.95312309265137)" opacity="1.0"><path id="ProcessOnPath1049" d="M0.0 7.2290612411499025L79.04687690734863 7.2290612411499025L79.04687690734863 0.0L90.0 10.953123092651367L79.04687690734863 21.906246185302734L79.04687690734863 14.677184944152833L0.0 14.677184944152833L0.0 7.2290612411499025Z" stroke="#323232" stroke-width="2.0" stroke-dasharray="none" opacity="1.0" fill="#000000"/></g><g id="ProcessOnG1050" transform="matrix(1.0,0.0,0.0,1.0,462.32500076293945,453.81249237060547)" opacity="1.0"><path id="ProcessOnPath1051" d="M0.0 7.260000000000001L59.349998474121094 7.260000000000001L59.349998474121094 0.0L70.3499984741211 11.0L59.349998474121094 22.0L59.349998474121094 14.74L0.0 14.74L0.0 7.260000000000001Z" stroke="#323232" stroke-width="2.0" stroke-dasharray="none" opacity="1.0" fill="#000000"/></g><g id="ProcessOnG1052" transform="matrix(-1.0,1.2246467991473532E-16,-1.2246467991473532E-16,-1.0,347.0,506.8593692779541)" opacity="1.0"><path id="ProcessOnPath1053" d="M0.0 7.2290612411499025L79.04687690734863 7.2290612411499025L79.04687690734863 0.0L90.0 10.953123092651367L79.04687690734863 21.906246185302734L79.04687690734863 14.677184944152833L0.0 14.677184944152833L0.0 7.2290612411499025Z" stroke="#323232" stroke-width="2.0" stroke-dasharray="none" opacity="1.0" fill="#000000"/></g><g id="ProcessOnG1054" transform="matrix(-1.0,1.2246467991473532E-16,-1.2246467991473532E-16,-1.0,731.0,506.8593692779541)" opacity="1.0"><path id="ProcessOnPath1055" d="M0.0 7.2290612411499025L79.04687690734863 7.2290612411499025L79.04687690734863 0.0L90.0 10.953123092651367L79.04687690734863 21.906246185302734L79.04687690734863 14.677184944152833L0.0 14.677184944152833L0.0 7.2290612411499025Z" stroke="#323232" stroke-width="2.0" stroke-dasharray="none" opacity="1.0" fill="#000000"/></g><g id="ProcessOnG1056" transform="matrix(-1.0,1.2246467991473532E-16,-1.2246467991473532E-16,-1.0,528.6749992370605,506.90624618530273)" opacity="1.0"><path id="ProcessOnPath1057" d="M0.0 7.260000000000001L59.349998474121094 7.260000000000001L59.349998474121094 0.0L70.3499984741211 11.0L59.349998474121094 22.0L59.349998474121094 14.74L0.0 14.74L0.0 7.260000000000001Z" stroke="#323232" stroke-width="2.0" stroke-dasharray="none" opacity="1.0" fill="#000000"/></g><g id="ProcessOnG1058" transform="matrix(1.0,0.0,0.0,1.0,226.0,498.81249237060547)" opacity="1.0"><path id="ProcessOnPath1059" d="M0.0 0.0L160.0 0.0L160.0 40.0L0.0 40.0Z" stroke="none" stroke-width="0.0" stroke-dasharray="none" opacity="1.0" fill="none"/><g id="ProcessOnG1060" transform="matrix(1.0,0.0,0.0,1.0,0.0,10.0)"><text id="ProcessOnText1061" fill="#000000" font-size="16" x="79.0" y="16.4" font-family="微软雅黑" font-weight="normal" font-style="normal" text-decoration="none" family="微软雅黑" text-anchor="middle" size="16">control</text></g></g><g id="ProcessOnG1062" transform="matrix(1.0,0.0,0.0,1.0,606.0,498.81249237060547)" opacity="1.0"><path id="ProcessOnPath1063" d="M0.0 0.0L160.0 0.0L160.0 40.0L0.0 40.0Z" stroke="none" stroke-width="0.0" stroke-dasharray="none" opacity="1.0" fill="none"/><g id="ProcessOnG1064" transform="matrix(1.0,0.0,0.0,1.0,0.0,10.0)"><text id="ProcessOnText1065" fill="#000000" font-size="16" x="79.0" y="16.4" font-family="微软雅黑" font-weight="normal" font-style="normal" text-decoration="none" family="微软雅黑" text-anchor="middle" size="16">control</text></g></g></g></g></svg>