<svg xmlns="http://www.w3.org/2000/svg" xmlns:xlink="http://www.w3.org/1999/xlink" id="processonSvg1000" viewBox="-27.5 315.4249849319458 1413.5 318.4671183926175" width="1413.5" height="318.4671183926175"><defs id="ProcessOnDefs1001"><marker id="ProcessOnMarker1098" markerUnits="userSpaceOnUse" orient="auto" markerWidth="16.23606797749979" markerHeight="10.550836550532098" viewBox="-1.0 -1.3763819204711736 16.23606797749979 10.550836550532098" refX="-1.0" refY="3.8990363547948754"><path id="ProcessOnPath1099" d="M12.0 3.8990363547948754L0.0 7.798072709589751V0.0Z" stroke="#323232" stroke-width="2.0" fill="#323232" transform="matrix(1.0,0.0,0.0,1.0,0.0,0.0)"/></marker><marker id="ProcessOnMarker1102" markerUnits="userSpaceOnUse" orient="auto" markerWidth="16.23606797749979" markerHeight="10.550836550532098" viewBox="-1.0 -1.3763819204711736 16.23606797749979 10.550836550532098" refX="-1.0" refY="3.8990363547948754"><path id="ProcessOnPath1103" d="M12.0 3.8990363547948754L0.0 7.798072709589751V0.0Z" stroke="#323232" stroke-width="2.0" fill="#323232" transform="matrix(1.0,0.0,0.0,1.0,0.0,0.0)"/></marker><marker id="ProcessOnMarker1106" markerUnits="userSpaceOnUse" orient="auto" markerWidth="16.23606797749979" markerHeight="10.550836550532098" viewBox="-1.0 -1.3763819204711736 16.23606797749979 10.550836550532098" refX="-1.0" refY="3.8990363547948754"><path id="ProcessOnPath1107" d="M12.0 3.8990363547948754L0.0 7.798072709589751V0.0Z" stroke="#323232" stroke-width="2.0" fill="#323232" transform="matrix(1.0,0.0,0.0,1.0,0.0,0.0)"/></marker><marker id="ProcessOnMarker1114" markerUnits="userSpaceOnUse" orient="auto" markerWidth="16.23606797749979" markerHeight="10.550836550532098" viewBox="-1.0 -1.3763819204711736 16.23606797749979 10.550836550532098" refX="-1.0" refY="3.8990363547948754"><path id="ProcessOnPath1115" d="M12.0 3.8990363547948754L0.0 7.798072709589751V0.0Z" stroke="#323232" stroke-width="2.0" fill="#323232" transform="matrix(1.0,0.0,0.0,1.0,0.0,0.0)"/></marker><marker id="ProcessOnMarker1118" markerUnits="userSpaceOnUse" orient="auto" markerWidth="16.23606797749979" markerHeight="10.550836550532098" viewBox="-1.0 -1.3763819204711736 16.23606797749979 10.550836550532098" refX="-1.0" refY="3.8990363547948754"><path id="ProcessOnPath1119" d="M12.0 3.8990363547948754L0.0 7.798072709589751V0.0Z" stroke="#323232" stroke-width="2.0" fill="#323232" transform="matrix(1.0,0.0,0.0,1.0,0.0,0.0)"/></marker><marker id="ProcessOnMarker1122" markerUnits="userSpaceOnUse" orient="auto" markerWidth="16.23606797749979" markerHeight="10.550836550532098" viewBox="-1.0 -1.3763819204711736 16.23606797749979 10.550836550532098" refX="-1.0" refY="3.8990363547948754"><path id="ProcessOnPath1123" d="M12.0 3.8990363547948754L0.0 7.798072709589751V0.0Z" stroke="#ff0000" stroke-width="2.0" fill="#ff0000" transform="matrix(1.0,0.0,0.0,1.0,0.0,0.0)"/></marker><marker id="ProcessOnMarker1134" markerUnits="userSpaceOnUse" orient="auto" markerWidth="16.23606797749979" markerHeight="10.550836550532098" viewBox="-1.0 -1.3763819204711736 16.23606797749979 10.550836550532098" refX="-1.0" refY="3.8990363547948754"><path id="ProcessOnPath1135" d="M12.0 3.8990363547948754L0.0 7.798072709589751V0.0Z" stroke="#323232" stroke-width="2.0" fill="#323232" transform="matrix(1.0,0.0,0.0,1.0,0.0,0.0)"/></marker></defs><g id="ProcessOnG1002"><path id="ProcessOnPath1003" d="M-27.5 315.4249849319458H1386.0V633.8921033245633H-27.5V315.4249849319458Z" fill="none"/><g id="ProcessOnG1004"><g id="ProcessOnG1005" transform="matrix(1.0,0.0,0.0,1.0,282.7706880497392,335.4249849319458)" opacity="1.0"><path id="ProcessOnPath1006" d="M0.0 0.0L289.7835609282294 0.0L289.7835609282294 261.18750762939453L0.0 261.18750762939453Z" stroke="#323232" stroke-width="2.0" stroke-dasharray="none" opacity="1.0" fill="#ffffff"/></g><g id="ProcessOnG1007" transform="matrix(1.0,0.0,0.0,1.0,297.5879250629722,382.06794645498235)" opacity="1.0"><path id="ProcessOnPath1008" d="M0.0 0.0L260.14908690176327 0.0L260.14908690176327 201.82415686958097L0.0 201.82415686958097Z" stroke="#ff0000" stroke-width="2.0" stroke-dasharray="10.0 4.0" opacity="1.0" fill="none"/></g><g id="ProcessOnG1009" transform="matrix(1.0,0.0,0.0,1.0,910.0000000000001,366.20624637603754)" opacity="1.0"><path id="ProcessOnPath1010" d="M0.0 4.0Q0.0 0.0 4.0 0.0L407.0 0.0Q411.0 0.0 411.0 4.0L411.0 195.62498474121094Q411.0 199.62498474121094 407.0 199.62498474121094L4.0 199.62498474121094Q0.0 199.62498474121094 0.0 195.62498474121094Z" stroke="#323232" stroke-width="2.0" stroke-dasharray="10.0 4.0" opacity="1.0" fill="#ffffff"/></g><g id="ProcessOnG1011" transform="matrix(-1.8369701987210297E-16,-1.0,1.0,-1.8369701987210297E-16,482.59765964421615,567.0532665400134)" opacity="1.0"><path id="ProcessOnPath1012" d="M0.0 0.0L164.87053339307195 0.0L164.87053339307195 55.042645274433056L0.0 55.042645274433056Z" stroke="#323232" stroke-width="2.0" stroke-dasharray="none" opacity="1.0" fill="#ffffff"/><g id="ProcessOnG1013" transform="matrix(1.0,0.0,0.0,1.0,10.0,10.646322637216528)"><text id="ProcessOnText1014" fill="#000000" font-size="27" x="71.43526669653598" y="27.675" font-family="微软雅黑" font-weight="normal" font-style="normal" text-decoration="none" family="微软雅黑" text-anchor="middle" size="27">Filter</text></g></g><g id="ProcessOnG1015" transform="matrix(-1.8369701987210297E-16,-1.0,1.0,-1.8369701987210297E-16,321.108535720864,565.4152915863089)" opacity="1.0"><path id="ProcessOnPath1016" d="M0.0 0.0L164.87053339307195 0.0L164.87053339307195 55.042645274433056L0.0 55.042645274433056Z" stroke="#323232" stroke-width="2.0" stroke-dasharray="none" opacity="1.0" fill="#ffffff"/><g id="ProcessOnG1017" transform="matrix(1.0,0.0,0.0,1.0,10.0,10.646322637216528)"><text id="ProcessOnText1018" fill="#000000" font-size="27" x="71.43526669653598" y="27.675" font-family="微软雅黑" font-weight="normal" font-style="normal" text-decoration="none" family="微软雅黑" text-anchor="middle" size="27">Feeder</text></g></g><g id="ProcessOnG1019" transform="matrix(1.0,0.0,0.0,1.0,336.7329974811083,514.1708465941592)" opacity="1.0"><path id="ProcessOnPath1020" d="M0.0 0.0L173.19899244332493 0.0L173.19899244332493 52.18857274809152L0.0 52.18857274809152Z" stroke="none" stroke-width="0.0" stroke-dasharray="none" opacity="1.0" fill="none"/><g id="ProcessOnG1021" transform="matrix(1.0,0.0,0.0,1.0,0.0,16.09428637404576)"><text id="ProcessOnText1022" fill="#000000" font-size="16" x="85.59949622166246" y="16.4" font-family="微软雅黑" font-weight="normal" font-style="normal" text-decoration="none" family="微软雅黑" text-anchor="middle" size="16">control</text></g></g><g id="ProcessOnG1023" transform="matrix(1.0,0.0,0.0,1.0,336.7329974811083,412.40312973538073)" opacity="1.0"><path id="ProcessOnPath1024" d="M0.0 0.0L173.19899244332493 0.0L173.19899244332493 52.18857274809152L0.0 52.18857274809152Z" stroke="none" stroke-width="0.0" stroke-dasharray="none" opacity="1.0" fill="none"/><g id="ProcessOnG1025" transform="matrix(1.0,0.0,0.0,1.0,0.0,16.09428637404576)"><text id="ProcessOnText1026" fill="#000000" font-size="16" x="85.59949622166246" y="16.4" font-family="微软雅黑" font-weight="normal" font-style="normal" text-decoration="none" family="微软雅黑" text-anchor="middle" size="16">pixels</text></g></g><g id="ProcessOnG1027" transform="matrix(1.0,0.0,0.0,1.0,-7.5,335.4249849319458)" opacity="1.0"><path id="ProcessOnPath1028" d="M0.0 0.0L162.37405541561714 0.0L162.37405541561714 261.18750762939453L0.0 261.18750762939453Z" stroke="#323232" stroke-width="2.0" stroke-dasharray="none" opacity="1.0" fill="#ffffff"/><g id="ProcessOnG1029" transform="matrix(1.0,0.0,0.0,1.0,10.0,113.71875381469727)"><text id="ProcessOnText1030" fill="#000000" font-size="27" x="70.18702770780857" y="27.675" font-family="微软雅黑" font-weight="normal" font-style="normal" text-decoration="none" family="微软雅黑" text-anchor="middle" size="27">Memory</text></g></g><g id="ProcessOnG1031" transform="matrix(1.0,0.0,0.0,1.0,270.6976510583604,335.4249849319458)" opacity="1.0"><path id="ProcessOnPath1032" d="M0.0 0.0L246.3023489416396 0.0L246.3023489416396 46.64296152303655L0.0 46.64296152303655Z" stroke="none" stroke-width="0.0" stroke-dasharray="none" opacity="1.0" fill="none"/><g id="ProcessOnG1033" transform="matrix(1.0,0.0,0.0,1.0,0.0,10.196480761518274)"><text id="ProcessOnText1034" fill="#000000" font-size="21" x="122.1511744708198" y="21.525" font-family="微软雅黑" font-weight="normal" font-style="normal" text-decoration="none" family="微软雅黑" text-anchor="middle" size="21">Digital Filter System</text></g></g><g id="ProcessOnG1035" transform="matrix(1.0,0.0,0.0,1.0,689.625944584383,335.4249849319458)" opacity="1.0"><path id="ProcessOnPath1036" d="M0.0 0.0L162.37405541561714 0.0L162.37405541561714 261.18750762939453L0.0 261.18750762939453Z" stroke="#323232" stroke-width="2.0" stroke-dasharray="none" opacity="1.0" fill="#ffffff"/><g id="ProcessOnG1037" transform="matrix(1.0,0.0,0.0,1.0,10.0,96.84375381469727)"><text id="ProcessOnText1038" fill="#000000" font-size="27" x="70.18702770780857" y="27.675" font-family="微软雅黑" font-weight="normal" font-style="normal" text-decoration="none" family="微软雅黑" text-anchor="middle" size="27">Video</text><text id="ProcessOnText1039" fill="#000000" font-size="27" x="70.18702770780857" y="61.425" font-family="微软雅黑" font-weight="normal" font-style="normal" text-decoration="none" family="微软雅黑" text-anchor="middle" size="27">Device</text></g></g><g id="ProcessOnG1040" transform="matrix(1.0,0.0,0.0,1.0,171.65270780856423,451.7280422131521)" opacity="1.0"><path id="ProcessOnPath1041" d="M0.0 9.43185971210401L83.13373671587934 9.43185971210401L83.13373671587934 0.0L97.42443324937027 14.290696533490925L83.13373671587934 28.58139306698185L83.13373671587934 19.14953335487784L0.0 19.14953335487784L0.0 9.43185971210401Z" stroke="#323232" stroke-width="2.0" stroke-dasharray="none" opacity="1.0" fill="#000000"/></g><g id="ProcessOnG1042" transform="matrix(1.0,0.0,0.0,1.0,133.7654282115869,412.4031297353808)" opacity="1.0"><path id="ProcessOnPath1043" d="M0.0 0.0L173.19899244332493 0.0L173.19899244332493 52.18857274809152L0.0 52.18857274809152Z" stroke="none" stroke-width="0.0" stroke-dasharray="none" opacity="1.0" fill="none"/><g id="ProcessOnG1044" transform="matrix(1.0,0.0,0.0,1.0,0.0,16.09428637404576)"><text id="ProcessOnText1045" fill="#000000" font-size="16" x="85.59949622166246" y="16.4" font-family="微软雅黑" font-weight="normal" font-style="normal" text-decoration="none" family="微软雅黑" text-anchor="middle" size="16">pixels</text></g></g><g id="ProcessOnG1046" transform="matrix(1.0,0.0,0.0,1.0,545.1130352644836,412.4031297353808)" opacity="1.0"><path id="ProcessOnPath1047" d="M0.0 0.0L173.19899244332493 0.0L173.19899244332493 52.18857274809152L0.0 52.18857274809152Z" stroke="none" stroke-width="0.0" stroke-dasharray="none" opacity="1.0" fill="none"/><g id="ProcessOnG1048" transform="matrix(1.0,0.0,0.0,1.0,0.0,16.09428637404576)"><text id="ProcessOnText1049" fill="#000000" font-size="16" x="85.59949622166246" y="16.4" font-family="微软雅黑" font-weight="normal" font-style="normal" text-decoration="none" family="微软雅黑" text-anchor="middle" size="16">pixels</text></g></g><g id="ProcessOnG1050" transform="matrix(1.0,0.0,0.0,1.0,583.0003148614609,451.7280422131521)" opacity="1.0"><path id="ProcessOnPath1051" d="M0.0 9.43185971210401L83.13373671587934 9.43185971210401L83.13373671587934 0.0L97.42443324937027 14.290696533490925L83.13373671587934 28.58139306698185L83.13373671587934 19.14953335487784L0.0 19.14953335487784L0.0 9.43185971210401Z" stroke="#323232" stroke-width="2.0" stroke-dasharray="none" opacity="1.0" fill="#000000"/></g><g id="ProcessOnG1052" transform="matrix(1.0,0.0,0.0,1.0,389.5857533447688,455.4587022525563)" opacity="1.0"><path id="ProcessOnPath1053" d="M0.0 9.472225953778612L61.80157283244496 9.472225953778612L61.80157283244496 0.0L76.15343033817012 14.351857505725167L61.80157283244496 28.703715011450335L61.80157283244496 19.231489057671727L0.0 19.231489057671727L0.0 9.472225953778612Z" stroke="#323232" stroke-width="2.0" stroke-dasharray="none" opacity="1.0" fill="#000000"/></g><g id="ProcessOnG1054" transform="matrix(-1.0,1.2246467991473532E-16,-1.2246467991473532E-16,-1.0,264.74716624685135,524.6697221160118)" opacity="1.0"><path id="ProcessOnPath1055" d="M0.0 9.43185971210401L83.13373671587934 9.43185971210401L83.13373671587934 0.0L97.42443324937027 14.290696533490925L83.13373671587934 28.58139306698185L83.13373671587934 19.14953335487784L0.0 19.14953335487784L0.0 9.43185971210401Z" stroke="#323232" stroke-width="2.0" stroke-dasharray="none" opacity="1.0" fill="#000000"/></g><g id="ProcessOnG1056" transform="matrix(-1.0,1.2246467991473532E-16,-1.2246467991473532E-16,-1.0,680.424748110831,524.6697221160118)" opacity="1.0"><path id="ProcessOnPath1057" d="M0.0 9.43185971210401L83.13373671587934 9.43185971210401L83.13373671587934 0.0L97.42443324937027 14.290696533490925L83.13373671587934 28.58139306698185L83.13373671587934 19.14953335487784L0.0 19.14953335487784L0.0 9.43185971210401Z" stroke="#323232" stroke-width="2.0" stroke-dasharray="none" opacity="1.0" fill="#000000"/></g><g id="ProcessOnG1058" transform="matrix(-1.0,1.2246467991473532E-16,-1.2246467991473532E-16,-1.0,461.4092088718558,524.730883088246)" opacity="1.0"><path id="ProcessOnPath1059" d="M0.0 9.472225953778612L61.80157283244496 9.472225953778612L61.80157283244496 0.0L76.15343033817012 14.351857505725167L61.80157283244496 28.703715011450335L61.80157283244496 19.231489057671727L0.0 19.231489057671727L0.0 9.472225953778612Z" stroke="#323232" stroke-width="2.0" stroke-dasharray="none" opacity="1.0" fill="#000000"/></g><g id="ProcessOnG1060" transform="matrix(1.0,0.0,0.0,1.0,133.7654282115869,514.1708465941592)" opacity="1.0"><path id="ProcessOnPath1061" d="M0.0 0.0L173.19899244332493 0.0L173.19899244332493 52.18857274809152L0.0 52.18857274809152Z" stroke="none" stroke-width="0.0" stroke-dasharray="none" opacity="1.0" fill="none"/><g id="ProcessOnG1062" transform="matrix(1.0,0.0,0.0,1.0,0.0,16.09428637404576)"><text id="ProcessOnText1063" fill="#000000" font-size="16" x="85.59949622166246" y="16.4" font-family="微软雅黑" font-weight="normal" font-style="normal" text-decoration="none" family="微软雅黑" text-anchor="middle" size="16">control</text></g></g><g id="ProcessOnG1064" transform="matrix(1.0,0.0,0.0,1.0,545.1130352644836,514.1708465941592)" opacity="1.0"><path id="ProcessOnPath1065" d="M0.0 0.0L173.19899244332493 0.0L173.19899244332493 52.18857274809152L0.0 52.18857274809152Z" stroke="none" stroke-width="0.0" stroke-dasharray="none" opacity="1.0" fill="none"/><g id="ProcessOnG1066" transform="matrix(1.0,0.0,0.0,1.0,0.0,16.09428637404576)"><text id="ProcessOnText1067" fill="#000000" font-size="16" x="85.59949622166246" y="16.4" font-family="微软雅黑" font-weight="normal" font-style="normal" text-decoration="none" family="微软雅黑" text-anchor="middle" size="16">control</text></g></g><g id="ProcessOnG1068" transform="matrix(1.0,0.0,0.0,1.0,1183.3778108772149,390.2249851226806)" opacity="1.0"><path id="ProcessOnPath1069" d="M0.0 0.0L108.07525422560714 0.0L108.07525422560714 151.5875072479248L0.0 151.5875072479248Z" stroke="#323232" stroke-width="2.0" stroke-dasharray="none" opacity="1.0" fill="#ffffff"/><g id="ProcessOnG1070" transform="matrix(1.0,0.0,0.0,1.0,10.0,61.4187536239624)"><text id="ProcessOnText1071" fill="#000000" font-size="23" x="43.03762711280357" y="23.575000000000003" font-family="微软雅黑" font-weight="normal" font-style="normal" text-decoration="none" family="微软雅黑" text-anchor="middle" size="23">Filter</text></g></g><g id="ProcessOnG1072" transform="matrix(1.0,0.0,0.0,1.0,1279.0015473364201,453.42739069023895)" opacity="1.0"><path id="ProcessOnPath1073" d="M0.0 0.0L26.768244545981887 0.0L26.768244545981887 25.18269611280813L0.0 25.18269611280813Z" stroke="#323232" stroke-width="2.0" stroke-dasharray="none" opacity="1.0" fill="#ffffff"/><g id="ProcessOnG1074" transform="matrix(1.0,0.0,0.0,1.0,10.0,3.8413480564040654)"><text id="ProcessOnText1075" fill="#000000" font-size="14" x="2.3841222729909433" y="14.350000000000001" font-family="微软雅黑" font-weight="normal" font-style="normal" text-decoration="none" family="微软雅黑" text-anchor="middle" size="14">o</text></g></g><g id="ProcessOnG1076" transform="matrix(1.0,0.0,0.0,1.0,954.2220831798742,390.2249851226806)" opacity="1.0"><path id="ProcessOnPath1077" d="M0.0 0.0L108.07525422560714 0.0L108.07525422560714 151.5875072479248L0.0 151.5875072479248Z" stroke="#323232" stroke-width="2.0" stroke-dasharray="none" opacity="1.0" fill="#ffffff"/><g id="ProcessOnG1078" transform="matrix(1.0,0.0,0.0,1.0,10.0,61.4187536239624)"><text id="ProcessOnText1079" fill="#000000" font-size="23" x="43.03762711280357" y="23.575000000000003" font-family="微软雅黑" font-weight="normal" font-style="normal" text-decoration="none" family="微软雅黑" text-anchor="middle" size="23">Feeder</text></g></g><g id="ProcessOnG1080" transform="matrix(1.0,0.0,0.0,1.0,1169.252635603977,451.67565261008)" opacity="1.0"><path id="ProcessOnPath1081" d="M0.0 0.0L26.768244545981887 0.0L26.768244545981887 25.18269611280813L0.0 25.18269611280813Z" stroke="#323232" stroke-width="2.0" stroke-dasharray="none" opacity="1.0" fill="#ffffff"/><g id="ProcessOnG1082" transform="matrix(1.0,0.0,0.0,1.0,10.0,4.466348056404065)"><text id="ProcessOnText1083" fill="#000000" font-size="13" x="2.3841222729909433" y="13.325" font-family="微软雅黑" font-weight="normal" font-style="normal" text-decoration="none" family="微软雅黑" text-anchor="middle" size="13">p</text></g></g><g id="ProcessOnG1084" transform="matrix(1.0,0.0,0.0,1.0,1169.252635603977,499.54818697543783)" opacity="1.0"><path id="ProcessOnPath1085" d="M0.0 0.0L26.768244545981887 0.0L26.768244545981887 25.18269611280813L0.0 25.18269611280813Z" stroke="#323232" stroke-width="2.0" stroke-dasharray="none" opacity="1.0" fill="#ffffff"/><g id="ProcessOnG1086" transform="matrix(1.0,0.0,0.0,1.0,10.0,4.466348056404065)"><text id="ProcessOnText1087" fill="#000000" font-size="13" x="2.3841222729909433" y="13.325" font-family="微软雅黑" font-weight="normal" font-style="normal" text-decoration="none" family="微软雅黑" text-anchor="middle" size="13">r</text></g></g><g id="ProcessOnG1088" transform="matrix(1.0,0.0,0.0,1.0,1048.9678283452195,451.67565261008)" opacity="1.0"><path id="ProcessOnPath1089" d="M0.0 0.0L26.768244545981887 0.0L26.768244545981887 25.18269611280813L0.0 25.18269611280813Z" stroke="#323232" stroke-width="2.0" stroke-dasharray="none" opacity="1.0" fill="#ffffff"/><g id="ProcessOnG1090" transform="matrix(1.0,0.0,0.0,1.0,10.0,4.466348056404065)"><text id="ProcessOnText1091" fill="#000000" font-size="13" x="2.3841222729909433" y="13.325" font-family="微软雅黑" font-weight="normal" font-style="normal" text-decoration="none" family="微软雅黑" text-anchor="middle" size="13">p</text></g></g><g id="ProcessOnG1092" transform="matrix(1.0,0.0,0.0,1.0,1048.9678283452195,499.54818697543783)" opacity="1.0"><path id="ProcessOnPath1093" d="M0.0 0.0L26.768244545981887 0.0L26.768244545981887 25.18269611280813L0.0 25.18269611280813Z" stroke="#323232" stroke-width="2.0" stroke-dasharray="none" opacity="1.0" fill="#ffffff"/><g id="ProcessOnG1094" transform="matrix(1.0,0.0,0.0,1.0,10.0,4.466348056404065)"><text id="ProcessOnText1095" fill="#000000" font-size="13" x="2.3841222729909433" y="13.325" font-family="微软雅黑" font-weight="normal" font-style="normal" text-decoration="none" family="微软雅黑" text-anchor="middle" size="13">r</text></g></g><g id="ProcessOnG1096"><path id="ProcessOnPath1097" d="M1305.769791882402 466.01873874664307L1335.8848959412007 466.01873874664307L1335.8848959412007 466.01873874664307L1350.7639320225003 466.01873874664307" stroke="#323232" stroke-width="2.0" stroke-dasharray="none" fill="none" marker-end="url(#ProcessOnMarker1098)"/></g><g id="ProcessOnG1100"><path id="ProcessOnPath1101" d="M1075.7360728912013 464.2670006664841L1122.4943542475892 464.2670006664841L1122.4943542475892 464.2670006664841L1154.0165676264774 464.2670006664841" stroke="#323232" stroke-width="2.0" stroke-dasharray="none" fill="none" marker-end="url(#ProcessOnMarker1102)"/></g><g id="ProcessOnG1104"><path id="ProcessOnPath1105" d="M1169.252635603977 512.1395350318419L1122.4943542475892 512.1395350318419L1122.4943542475892 512.1395350318419L1090.972140868701 512.1395350318419" stroke="#323232" stroke-width="2.0" stroke-dasharray="none" fill="none" marker-end="url(#ProcessOnMarker1106)"/></g><g id="ProcessOnG1108" transform="matrix(1.0,0.0,0.0,1.0,940.9748992004957,421.67565261008)" opacity="1.0"><path id="ProcessOnPath1109" d="M0.0 0.0L26.768244545981887 0.0L26.768244545981887 25.18269611280813L0.0 25.18269611280813Z" stroke="#323232" stroke-width="2.0" stroke-dasharray="none" opacity="1.0" fill="#ffffff"/></g><g id="ProcessOnG1110" transform="matrix(1.0,0.0,0.0,1.0,940.9748992004957,486.95662636788575)" opacity="1.0"><path id="ProcessOnPath1111" d="M0.0 0.0L26.768244545981887 0.0L26.768244545981887 25.18269611280813L0.0 25.18269611280813Z" stroke="#323232" stroke-width="2.0" stroke-dasharray="none" opacity="1.0" fill="#ffffff"/></g><g id="ProcessOnG1112"><path id="ProcessOnPath1113" d="M940.9748992004957 434.2670006664841L912.0398437888733 434.2670006664841L912.0398437888733 434.2670006664841L898.3408563547509 434.2670006664841" stroke="#323232" stroke-width="2.0" stroke-dasharray="none" fill="none" marker-end="url(#ProcessOnMarker1114)"/></g><g id="ProcessOnG1116"><path id="ProcessOnPath1117" d="M881.6999969482423 499.5479744242898L911.337448074369 499.5479744242898L911.337448074369 499.5479744242898L925.7388312229958 499.5479744242898" stroke="#323232" stroke-width="2.0" stroke-dasharray="none" fill="none" marker-end="url(#ProcessOnMarker1118)"/></g><g id="ProcessOnG1120"><path id="ProcessOnPath1121" d="M427.6624685138538 583.8921033245633L427.6624685138538 613.8921033245633L1115.5 613.8921033245633L1115.5 581.0672990947484" stroke="#ff0000" stroke-width="2.0" stroke-dasharray="10.0 4.0" fill="none" marker-end="url(#ProcessOnMarker1122)"/></g><g id="ProcessOnG1124" transform="matrix(1.0,0.0,0.0,1.0,1048.9678283452195,401.67565261008)" opacity="1.0"><path id="ProcessOnPath1125" d="M0.0 0.0L26.768244545981887 0.0L26.768244545981887 25.18269611280813L0.0 25.18269611280813Z" stroke="#323232" stroke-width="2.0" stroke-dasharray="none" opacity="1.0" fill="#ffffff"/><g id="ProcessOnG1126" transform="matrix(1.0,0.0,0.0,1.0,10.0,4.466348056404065)"><text id="ProcessOnText1127" fill="#000000" font-size="13" x="2.3841222729909433" y="13.325" font-family="微软雅黑" font-weight="normal" font-style="normal" text-decoration="none" family="微软雅黑" text-anchor="middle" size="13">i</text></g></g><g id="ProcessOnG1128" transform="matrix(1.0,0.0,0.0,1.0,1169.252635603977,401.67565261008)" opacity="1.0"><path id="ProcessOnPath1129" d="M0.0 0.0L26.768244545981887 0.0L26.768244545981887 25.18269611280813L0.0 25.18269611280813Z" stroke="#323232" stroke-width="2.0" stroke-dasharray="none" opacity="1.0" fill="#ffffff"/><g id="ProcessOnG1130" transform="matrix(1.0,0.0,0.0,1.0,10.0,4.466348056404065)"><text id="ProcessOnText1131" fill="#000000" font-size="13" x="2.3841222729909433" y="13.325" font-family="微软雅黑" font-weight="normal" font-style="normal" text-decoration="none" family="微软雅黑" text-anchor="middle" size="13">i</text></g></g><g id="ProcessOnG1132"><path id="ProcessOnPath1133" d="M1075.7360728912013 414.2670006664841L1122.4943542475892 414.2670006664841L1122.4943542475892 414.2670006664841L1154.0165676264774 414.2670006664841" stroke="#323232" stroke-width="2.0" stroke-dasharray="none" fill="none" marker-end="url(#ProcessOnMarker1134)"/></g></g></g></svg>