<svg xmlns="http://www.w3.org/2000/svg" xmlns:xlink="http://www.w3.org/1999/xlink" id="processonSvg1000" viewBox="112.0 407.81249237060547 846.5 276.0" width="846.5" height="276.0"><defs id="ProcessOnDefs1001"/><g id="ProcessOnG1002"><path id="ProcessOnPath1003" d="M112.0 407.81249237060547H958.5V683.8124923706055H112.0V407.81249237060547Z" fill="none"/><g id="ProcessOnG1004"><g id="ProcessOnG1005" transform="matrix(1.0,0.0,0.0,1.0,144.5,442.81249237060547)" opacity="1.0"><path id="ProcessOnPath1006" d="M0.0 0.0L150.0 0.0L150.0 200.18750762939453L0.0 200.18750762939453Z" stroke="#323232" stroke-width="2.0" stroke-dasharray="none" opacity="1.0" fill="#ffffff"/><g id="ProcessOnG1007" transform="matrix(1.0,0.0,0.0,1.0,10.0,85.71875381469727)"><text id="ProcessOnText1008" fill="#000000" font-size="23" x="64.0" y="23.575000000000003" font-family="微软雅黑" font-weight="normal" font-style="normal" text-decoration="none" family="微软雅黑" text-anchor="middle" size="23">Memory</text></g></g><g id="ProcessOnG1009" transform="matrix(1.0,0.0,0.0,1.0,412.6500015258789,442.81249237060547)" opacity="1.0"><path id="ProcessOnPath1010" d="M0.0 0.0L267.6999969482422 0.0L267.6999969482422 200.18750762939453L0.0 200.18750762939453Z" stroke="#323232" stroke-width="2.0" stroke-dasharray="none" opacity="1.0" fill="#ffffff"/></g><g id="ProcessOnG1011" transform="matrix(1.0,0.0,0.0,1.0,392.2590866088867,442.81249237060547)" opacity="1.0"><path id="ProcessOnPath1012" d="M0.0 0.0L160.0 0.0L160.0 40.0L0.0 40.0Z" stroke="none" stroke-width="0.0" stroke-dasharray="none" opacity="1.0" fill="none"/><g id="ProcessOnG1013" transform="matrix(1.0,0.0,0.0,1.0,0.0,10.0)"><text id="ProcessOnText1014" fill="#000000" font-size="16" x="79.0" y="16.4" font-family="微软雅黑" font-weight="normal" font-style="normal" text-decoration="none" family="微软雅黑" text-anchor="middle" size="16">Digital Filter</text></g></g><g id="ProcessOnG1015" transform="matrix(-1.8369701987210297E-16,-1.0,1.0,-1.8369701987210297E-16,583.5656242370605,632.0593605041504)" opacity="1.0"><path id="ProcessOnPath1016" d="M0.0 0.0L152.3062286376953 0.0L152.3062286376953 42.18750762939453L0.0 42.18750762939453Z" stroke="#323232" stroke-width="2.0" stroke-dasharray="none" opacity="1.0" fill="#ffffff"/><g id="ProcessOnG1017" transform="matrix(1.0,0.0,0.0,1.0,10.0,6.718753814697266)"><text id="ProcessOnText1018" fill="#000000" font-size="23" x="65.15311431884766" y="23.575000000000003" font-family="微软雅黑" font-weight="normal" font-style="normal" text-decoration="none" family="微软雅黑" text-anchor="middle" size="23">Filter</text></g></g><g id="ProcessOnG1019" transform="matrix(-1.8369701987210297E-16,-1.0,1.0,-1.8369701987210297E-16,461.6344108581543,632.0593605041504)" opacity="1.0"><path id="ProcessOnPath1020" d="M0.0 0.0L152.3062286376953 0.0L152.3062286376953 42.18750762939453L0.0 42.18750762939453Z" stroke="#323232" stroke-width="2.0" stroke-dasharray="none" opacity="1.0" fill="#ffffff"/><g id="ProcessOnG1021" transform="matrix(1.0,0.0,0.0,1.0,10.0,6.718753814697266)"><text id="ProcessOnText1022" fill="#000000" font-size="23" x="65.15311431884766" y="23.575000000000003" font-family="微软雅黑" font-weight="normal" font-style="normal" text-decoration="none" family="微软雅黑" text-anchor="middle" size="23">Feeder</text></g></g><g id="ProcessOnG1023" transform="matrix(1.0,0.0,0.0,1.0,788.5,442.81249237060547)" opacity="1.0"><path id="ProcessOnPath1024" d="M0.0 0.0L150.0 0.0L150.0 200.18750762939453L0.0 200.18750762939453Z" stroke="#323232" stroke-width="2.0" stroke-dasharray="none" opacity="1.0" fill="#ffffff"/><g id="ProcessOnG1025" transform="matrix(1.0,0.0,0.0,1.0,10.0,71.34375381469727)"><text id="ProcessOnText1026" fill="#000000" font-size="23" x="64.0" y="23.575000000000003" font-family="微软雅黑" font-weight="normal" font-style="normal" text-decoration="none" family="微软雅黑" text-anchor="middle" size="23">Video</text><text id="ProcessOnText1027" fill="#000000" font-size="23" x="64.0" y="52.325" font-family="微软雅黑" font-weight="normal" font-style="normal" text-decoration="none" family="微软雅黑" text-anchor="middle" size="23">Device</text></g></g><g id="ProcessOnG1028" transform="matrix(1.0,0.0,0.0,1.0,310.0,531.9531230926514)" opacity="1.0"><path id="ProcessOnPath1029" d="M0.0 7.2290612411499025L79.04687690734863 7.2290612411499025L79.04687690734863 0.0L90.0 10.953123092651367L79.04687690734863 21.906246185302734L79.04687690734863 14.677184944152833L0.0 14.677184944152833L0.0 7.2290612411499025Z" stroke="#323232" stroke-width="2.0" stroke-dasharray="none" opacity="1.0" fill="#000000"/></g><g id="ProcessOnG1030" transform="matrix(1.0,0.0,0.0,1.0,275.0,501.81249237060547)" opacity="1.0"><path id="ProcessOnPath1031" d="M0.0 0.0L160.0 0.0L160.0 40.0L0.0 40.0Z" stroke="none" stroke-width="0.0" stroke-dasharray="none" opacity="1.0" fill="none"/><g id="ProcessOnG1032" transform="matrix(1.0,0.0,0.0,1.0,0.0,11.875)"><text id="ProcessOnText1033" fill="#000000" font-size="13" x="79.0" y="13.325" font-family="微软雅黑" font-weight="normal" font-style="normal" text-decoration="none" family="微软雅黑" text-anchor="middle" size="13">pixels</text></g></g><g id="ProcessOnG1034" transform="matrix(1.0,0.0,0.0,1.0,655.0,501.81249237060547)" opacity="1.0"><path id="ProcessOnPath1035" d="M0.0 0.0L160.0 0.0L160.0 40.0L0.0 40.0Z" stroke="none" stroke-width="0.0" stroke-dasharray="none" opacity="1.0" fill="none"/><g id="ProcessOnG1036" transform="matrix(1.0,0.0,0.0,1.0,0.0,11.875)"><text id="ProcessOnText1037" fill="#000000" font-size="13" x="79.0" y="13.325" font-family="微软雅黑" font-weight="normal" font-style="normal" text-decoration="none" family="微软雅黑" text-anchor="middle" size="13">pixels</text></g></g><g id="ProcessOnG1038" transform="matrix(1.0,0.0,0.0,1.0,690.0,531.9531230926514)" opacity="1.0"><path id="ProcessOnPath1039" d="M0.0 7.2290612411499025L79.04687690734863 7.2290612411499025L79.04687690734863 0.0L90.0 10.953123092651367L79.04687690734863 21.906246185302734L79.04687690734863 14.677184944152833L0.0 14.677184944152833L0.0 7.2290612411499025Z" stroke="#323232" stroke-width="2.0" stroke-dasharray="none" opacity="1.0" fill="#000000"/></g><g id="ProcessOnG1040" transform="matrix(1.0,0.0,0.0,1.0,511.32500076293945,534.8124923706055)" opacity="1.0"><path id="ProcessOnPath1041" d="M0.0 7.260000000000001L59.349998474121094 7.260000000000001L59.349998474121094 0.0L70.3499984741211 11.0L59.349998474121094 22.0L59.349998474121094 14.74L0.0 14.74L0.0 7.260000000000001Z" stroke="#323232" stroke-width="2.0" stroke-dasharray="none" opacity="1.0" fill="#000000"/></g><g id="ProcessOnG1042" transform="matrix(-1.0,1.2246467991473532E-16,-1.2246467991473532E-16,-1.0,396.0,587.8593692779541)" opacity="1.0"><path id="ProcessOnPath1043" d="M0.0 7.2290612411499025L79.04687690734863 7.2290612411499025L79.04687690734863 0.0L90.0 10.953123092651367L79.04687690734863 21.906246185302734L79.04687690734863 14.677184944152833L0.0 14.677184944152833L0.0 7.2290612411499025Z" stroke="#323232" stroke-width="2.0" stroke-dasharray="none" opacity="1.0" fill="#000000"/></g><g id="ProcessOnG1044" transform="matrix(-1.0,1.2246467991473532E-16,-1.2246467991473532E-16,-1.0,780.0,587.8593692779541)" opacity="1.0"><path id="ProcessOnPath1045" d="M0.0 7.2290612411499025L79.04687690734863 7.2290612411499025L79.04687690734863 0.0L90.0 10.953123092651367L79.04687690734863 21.906246185302734L79.04687690734863 14.677184944152833L0.0 14.677184944152833L0.0 7.2290612411499025Z" stroke="#323232" stroke-width="2.0" stroke-dasharray="none" opacity="1.0" fill="#000000"/></g><g id="ProcessOnG1046" transform="matrix(-1.0,1.2246467991473532E-16,-1.2246467991473532E-16,-1.0,577.6749992370605,587.9062461853027)" opacity="1.0"><path id="ProcessOnPath1047" d="M0.0 7.260000000000001L59.349998474121094 7.260000000000001L59.349998474121094 0.0L70.3499984741211 11.0L59.349998474121094 22.0L59.349998474121094 14.74L0.0 14.74L0.0 7.260000000000001Z" stroke="#323232" stroke-width="2.0" stroke-dasharray="none" opacity="1.0" fill="#000000"/></g><g id="ProcessOnG1048" transform="matrix(1.0,0.0,0.0,1.0,462.5,501.81249237060547)" opacity="1.0"><path id="ProcessOnPath1049" d="M0.0 0.0L160.0 0.0L160.0 40.0L0.0 40.0Z" stroke="none" stroke-width="0.0" stroke-dasharray="none" opacity="1.0" fill="none"/><g id="ProcessOnG1050" transform="matrix(1.0,0.0,0.0,1.0,0.0,11.875)"><text id="ProcessOnText1051" fill="#000000" font-size="13" x="79.0" y="13.325" font-family="微软雅黑" font-weight="normal" font-style="normal" text-decoration="none" family="微软雅黑" text-anchor="middle" size="13">pixels</text></g></g><g id="ProcessOnG1052" transform="matrix(1.0,0.0,0.0,1.0,275.0,579.8124923706055)" opacity="1.0"><path id="ProcessOnPath1053" d="M0.0 0.0L160.0 0.0L160.0 40.0L0.0 40.0Z" stroke="none" stroke-width="0.0" stroke-dasharray="none" opacity="1.0" fill="none"/><g id="ProcessOnG1054" transform="matrix(1.0,0.0,0.0,1.0,0.0,11.875)"><text id="ProcessOnText1055" fill="#000000" font-size="13" x="79.0" y="13.325" font-family="微软雅黑" font-weight="normal" font-style="normal" text-decoration="none" family="微软雅黑" text-anchor="middle" size="13">control</text></g></g><g id="ProcessOnG1056" transform="matrix(1.0,0.0,0.0,1.0,655.0,579.8124923706055)" opacity="1.0"><path id="ProcessOnPath1057" d="M0.0 0.0L160.0 0.0L160.0 40.0L0.0 40.0Z" stroke="none" stroke-width="0.0" stroke-dasharray="none" opacity="1.0" fill="none"/><g id="ProcessOnG1058" transform="matrix(1.0,0.0,0.0,1.0,0.0,11.875)"><text id="ProcessOnText1059" fill="#000000" font-size="13" x="79.0" y="13.325" font-family="微软雅黑" font-weight="normal" font-style="normal" text-decoration="none" family="微软雅黑" text-anchor="middle" size="13">control</text></g></g><g id="ProcessOnG1060" transform="matrix(1.0,0.0,0.0,1.0,462.5,579.8124923706055)" opacity="1.0"><path id="ProcessOnPath1061" d="M0.0 0.0L160.0 0.0L160.0 40.0L0.0 40.0Z" stroke="none" stroke-width="0.0" stroke-dasharray="none" opacity="1.0" fill="none"/><g id="ProcessOnG1062" transform="matrix(1.0,0.0,0.0,1.0,0.0,11.875)"><text id="ProcessOnText1063" fill="#000000" font-size="13" x="79.0" y="13.325" font-family="微软雅黑" font-weight="normal" font-style="normal" text-decoration="none" family="微软雅黑" text-anchor="middle" size="13">control</text></g></g><g id="ProcessOnG1064" transform="matrix(1.0,0.0,0.0,1.0,132.0,427.81249237060547)" opacity="1.0"><path id="ProcessOnPath1065" d="M0.0 0.0L393.0 0.0L393.0 236.0L0.0 236.0Z" stroke="#ff0000" stroke-width="2.0" stroke-dasharray="10.0 4.0" opacity="1.0" fill="none"/></g></g></g></svg>