<svg xmlns="http://www.w3.org/2000/svg" xmlns:xlink="http://www.w3.org/1999/xlink" id="processonSvg1000" viewBox="156.39999389648438 181.0 591.6000061035156 218.79999923706055" width="591.6000061035156" height="218.79999923706055"><defs id="ProcessOnDefs1001"><marker id="ProcessOnMarker1035" markerUnits="userSpaceOnUse" orient="auto" markerWidth="16.23606797749979" markerHeight="10.550836550532098" viewBox="-1.0 -1.3763819204711736 16.23606797749979 10.550836550532098" refX="-1.0" refY="3.8990363547948754"><path id="ProcessOnPath1036" d="M12.0 3.8990363547948754L0.0 7.798072709589751V0.0Z" stroke="#323232" stroke-width="2.0" fill="#323232" transform="matrix(1.0,0.0,0.0,1.0,0.0,0.0)"/></marker><marker id="ProcessOnMarker1039" markerUnits="userSpaceOnUse" orient="auto" markerWidth="16.23606797749979" markerHeight="10.550836550532098" viewBox="-1.0 -1.3763819204711736 16.23606797749979 10.550836550532098" refX="-1.0" refY="3.8990363547948754"><path id="ProcessOnPath1040" d="M12.0 3.8990363547948754L0.0 7.798072709589751V0.0Z" stroke="#323232" stroke-width="2.0" fill="#323232" transform="matrix(1.0,0.0,0.0,1.0,0.0,0.0)"/></marker><marker id="ProcessOnMarker1043" markerUnits="userSpaceOnUse" orient="auto" markerWidth="16.23606797749979" markerHeight="10.550836550532098" viewBox="-1.0 -1.3763819204711736 16.23606797749979 10.550836550532098" refX="-1.0" refY="3.8990363547948754"><path id="ProcessOnPath1044" d="M12.0 3.8990363547948754L0.0 7.798072709589751V0.0Z" stroke="#323232" stroke-width="2.0" fill="#323232" transform="matrix(1.0,0.0,0.0,1.0,0.0,0.0)"/></marker><marker id="ProcessOnMarker1051" markerUnits="userSpaceOnUse" orient="auto" markerWidth="16.23606797749979" markerHeight="10.550836550532098" viewBox="-1.0 -1.3763819204711736 16.23606797749979 10.550836550532098" refX="-1.0" refY="3.8990363547948754"><path id="ProcessOnPath1052" d="M12.0 3.8990363547948754L0.0 7.798072709589751V0.0Z" stroke="#323232" stroke-width="2.0" fill="#323232" transform="matrix(1.0,0.0,0.0,1.0,0.0,0.0)"/></marker><marker id="ProcessOnMarker1055" markerUnits="userSpaceOnUse" orient="auto" markerWidth="16.23606797749979" markerHeight="10.550836550532098" viewBox="-1.0 -1.3763819204711736 16.23606797749979 10.550836550532098" refX="-1.0" refY="3.8990363547948754"><path id="ProcessOnPath1056" d="M12.0 3.8990363547948754L0.0 7.798072709589751V0.0Z" stroke="#323232" stroke-width="2.0" fill="#323232" transform="matrix(1.0,0.0,0.0,1.0,0.0,0.0)"/></marker></defs><g id="ProcessOnG1002"><path id="ProcessOnPath1003" d="M156.39999389648438 181.0H748.0V399.79999923706055H156.39999389648438V181.0Z" fill="none"/><g id="ProcessOnG1004"><g id="ProcessOnG1005" transform="matrix(1.0,0.0,0.0,1.0,520.0,201.0)" opacity="1.0"><path id="ProcessOnPath1006" d="M0.0 0.0L123.09376525878906 0.0L123.09376525878906 178.79999923706055L0.0 178.79999923706055Z" stroke="#323232" stroke-width="2.0" stroke-dasharray="none" opacity="1.0" fill="#ffffff"/><g id="ProcessOnG1007" transform="matrix(1.0,0.0,0.0,1.0,10.0,75.02499961853027)"><text id="ProcessOnText1008" fill="#000000" font-size="23" x="50.54688262939453" y="23.575000000000003" font-family="微软雅黑" font-weight="normal" font-style="normal" text-decoration="none" family="微软雅黑" text-anchor="middle" size="23">Filter</text></g></g><g id="ProcessOnG1009" transform="matrix(1.0,0.0,0.0,1.0,628.9119415283203,275.5482940673828)" opacity="1.0"><path id="ProcessOnPath1010" d="M0.0 0.0L30.488052368164062 0.0L30.488052368164062 29.703411102294922L0.0 29.703411102294922Z" stroke="#323232" stroke-width="2.0" stroke-dasharray="none" opacity="1.0" fill="#ffffff"/><g id="ProcessOnG1011" transform="matrix(1.0,0.0,0.0,1.0,10.0,6.101705551147461)"><text id="ProcessOnText1012" fill="#000000" font-size="14" x="4.244026184082031" y="14.350000000000001" font-family="微软雅黑" font-weight="normal" font-style="normal" text-decoration="none" family="微软雅黑" text-anchor="middle" size="14">o</text></g></g><g id="ProcessOnG1013" transform="matrix(1.0,0.0,0.0,1.0,259.0,201.0)" opacity="1.0"><path id="ProcessOnPath1014" d="M0.0 0.0L123.09376525878906 0.0L123.09376525878906 178.79999923706055L0.0 178.79999923706055Z" stroke="#323232" stroke-width="2.0" stroke-dasharray="none" opacity="1.0" fill="#ffffff"/><g id="ProcessOnG1015" transform="matrix(1.0,0.0,0.0,1.0,10.0,75.02499961853027)"><text id="ProcessOnText1016" fill="#000000" font-size="23" x="50.54688262939453" y="23.575000000000003" font-family="微软雅黑" font-weight="normal" font-style="normal" text-decoration="none" family="微软雅黑" text-anchor="middle" size="23">Feeder</text></g></g><g id="ProcessOnG1017" transform="matrix(1.0,0.0,0.0,1.0,503.9119415283203,238.09658813476562)" opacity="1.0"><path id="ProcessOnPath1018" d="M0.0 0.0L30.488052368164062 0.0L30.488052368164062 29.703411102294922L0.0 29.703411102294922Z" stroke="#323232" stroke-width="2.0" stroke-dasharray="none" opacity="1.0" fill="#ffffff"/><g id="ProcessOnG1019" transform="matrix(1.0,0.0,0.0,1.0,10.0,6.726705551147461)"><text id="ProcessOnText1020" fill="#000000" font-size="13" x="4.244026184082031" y="13.325" font-family="微软雅黑" font-weight="normal" font-style="normal" text-decoration="none" family="微软雅黑" text-anchor="middle" size="13">p</text></g></g><g id="ProcessOnG1021" transform="matrix(1.0,0.0,0.0,1.0,503.9119415283203,315.0965881347656)" opacity="1.0"><path id="ProcessOnPath1022" d="M0.0 0.0L30.488052368164062 0.0L30.488052368164062 29.703411102294922L0.0 29.703411102294922Z" stroke="#323232" stroke-width="2.0" stroke-dasharray="none" opacity="1.0" fill="#ffffff"/><g id="ProcessOnG1023" transform="matrix(1.0,0.0,0.0,1.0,10.0,6.726705551147461)"><text id="ProcessOnText1024" fill="#000000" font-size="13" x="4.244026184082031" y="13.325" font-family="微软雅黑" font-weight="normal" font-style="normal" text-decoration="none" family="微软雅黑" text-anchor="middle" size="13">r</text></g></g><g id="ProcessOnG1025" transform="matrix(1.0,0.0,0.0,1.0,366.9119415283203,238.09658813476562)" opacity="1.0"><path id="ProcessOnPath1026" d="M0.0 0.0L30.488052368164062 0.0L30.488052368164062 29.703411102294922L0.0 29.703411102294922Z" stroke="#323232" stroke-width="2.0" stroke-dasharray="none" opacity="1.0" fill="#ffffff"/><g id="ProcessOnG1027" transform="matrix(1.0,0.0,0.0,1.0,10.0,6.726705551147461)"><text id="ProcessOnText1028" fill="#000000" font-size="13" x="4.244026184082031" y="13.325" font-family="微软雅黑" font-weight="normal" font-style="normal" text-decoration="none" family="微软雅黑" text-anchor="middle" size="13">p</text></g></g><g id="ProcessOnG1029" transform="matrix(1.0,0.0,0.0,1.0,366.9119415283203,315.0965881347656)" opacity="1.0"><path id="ProcessOnPath1030" d="M0.0 0.0L30.488052368164062 0.0L30.488052368164062 29.703411102294922L0.0 29.703411102294922Z" stroke="#323232" stroke-width="2.0" stroke-dasharray="none" opacity="1.0" fill="#ffffff"/><g id="ProcessOnG1031" transform="matrix(1.0,0.0,0.0,1.0,10.0,6.726705551147461)"><text id="ProcessOnText1032" fill="#000000" font-size="13" x="4.244026184082031" y="13.325" font-family="微软雅黑" font-weight="normal" font-style="normal" text-decoration="none" family="微软雅黑" text-anchor="middle" size="13">r</text></g></g><g id="ProcessOnG1033"><path id="ProcessOnPath1034" d="M659.3999938964844 290.3999996185303L693.6999969482422 290.3999996185303L693.6999969482422 290.3999996185303L712.7639320225002 290.3999996185303" stroke="#323232" stroke-width="2.0" stroke-dasharray="none" fill="none" marker-end="url(#ProcessOnMarker1035)"/></g><g id="ProcessOnG1037"><path id="ProcessOnPath1038" d="M397.3999938964844 252.9482936859131L450.65596771240234 252.9482936859131L450.65596771240234 252.9482936859131L488.67587355082054 252.9482936859131" stroke="#323232" stroke-width="2.0" stroke-dasharray="none" fill="none" marker-end="url(#ProcessOnMarker1039)"/></g><g id="ProcessOnG1041"><path id="ProcessOnPath1042" d="M503.9119415283203 329.9482936859131L450.65596771240234 329.9482936859131L450.65596771240234 329.9482936859131L412.63606187398415 329.9482936859131" stroke="#323232" stroke-width="2.0" stroke-dasharray="none" fill="none" marker-end="url(#ProcessOnMarker1043)"/></g><g id="ProcessOnG1045" transform="matrix(1.0,0.0,0.0,1.0,243.9119415283203,238.09658813476562)" opacity="1.0"><path id="ProcessOnPath1046" d="M0.0 0.0L30.488052368164062 0.0L30.488052368164062 29.703411102294922L0.0 29.703411102294922Z" stroke="#323232" stroke-width="2.0" stroke-dasharray="none" opacity="1.0" fill="#ffffff"/></g><g id="ProcessOnG1047" transform="matrix(1.0,0.0,0.0,1.0,243.9119415283203,315.0965881347656)" opacity="1.0"><path id="ProcessOnPath1048" d="M0.0 0.0L30.488052368164062 0.0L30.488052368164062 29.703411102294922L0.0 29.703411102294922Z" stroke="#323232" stroke-width="2.0" stroke-dasharray="none" opacity="1.0" fill="#ffffff"/></g><g id="ProcessOnG1049"><path id="ProcessOnPath1050" d="M243.9119415283203 252.9482936859131L210.95597076416016 252.9482936859131L210.95597076416016 252.9482936859131L193.2360679774998 252.9482936859131" stroke="#323232" stroke-width="2.0" stroke-dasharray="none" fill="none" marker-end="url(#ProcessOnMarker1051)"/></g><g id="ProcessOnG1053"><path id="ProcessOnPath1054" d="M176.39999389648438 329.9482936859131L210.15596771240234 329.9482936859131L210.15596771240234 329.9482936859131L228.6758735508205 329.9482936859131" stroke="#323232" stroke-width="2.0" stroke-dasharray="none" fill="none" marker-end="url(#ProcessOnMarker1055)"/></g></g></g></svg>